<svg width="96" height="96" viewBox="0 0 96 96" fill="none" xmlns="http://www.w3.org/2000/svg">
<mask id="path-1-inside-1_101_1141" fill="white">
<path d="M0 4C0 1.79086 1.79086 0 4 0H92C94.2091 0 96 1.79086 96 4V92C96 94.2091 94.2091 96 92 96H4C1.79086 96 0 94.2091 0 92V4Z"/>
</mask>
<path d="M0 4C0 1.79086 1.79086 0 4 0H92C94.2091 0 96 1.79086 96 4V92C96 94.2091 94.2091 96 92 96H4C1.79086 96 0 94.2091 0 92V4Z" fill="#F5F5F5"/>
<path d="M4 0V2H92V0V-2H4V0ZM96 4H94V92H96H98V4H96ZM92 96V94H4V96V98H92V96ZM0 92H2V4H0H-2V92H0ZM4 96V94C2.89543 94 2 93.1046 2 92H0H-2C-2 95.3137 0.686295 98 4 98V96ZM96 92H94C94 93.1046 93.1046 94 92 94V96V98C95.3137 98 98 95.3137 98 92H96ZM92 0V2C93.1046 2 94 2.89543 94 4H96H98C98 0.686291 95.3137 -2 92 -2V0ZM4 0V-2C0.686291 -2 -2 0.686295 -2 4H0H2C2 2.89543 2.89543 2 4 2V0Z" fill="#090D00" fill-opacity="0.1" mask="url(#path-1-inside-1_101_1141)"/>
<path d="M52.6357 49.1865L54.6557 60.5545C54.6783 60.6884 54.6595 60.826 54.6018 60.9489C54.5442 61.0718 54.4503 61.1741 54.3329 61.2423C54.2155 61.3104 54.0801 61.341 53.9447 61.3301C53.8094 61.3192 53.6807 61.2673 53.5757 61.1812L48.8023 57.5985C48.5719 57.4264 48.292 57.3334 48.0043 57.3334C47.7167 57.3334 47.4368 57.4264 47.2063 57.5985L42.425 61.1799C42.3201 61.2658 42.1915 61.3177 42.0563 61.3286C41.9212 61.3395 41.7859 61.309 41.6686 61.241C41.5512 61.1731 41.4574 61.071 41.3996 60.9483C41.3418 60.8256 41.3227 60.6883 41.345 60.5545L43.3637 49.1865" stroke="#6B7280" stroke-width="2.66667" stroke-linecap="round" stroke-linejoin="round"/>
<path d="M48 50.6665C52.4183 50.6665 56 47.0848 56 42.6665C56 38.2482 52.4183 34.6665 48 34.6665C43.5817 34.6665 40 38.2482 40 42.6665C40 47.0848 43.5817 50.6665 48 50.6665Z" stroke="#6B7280" stroke-width="2.66667" stroke-linecap="round" stroke-linejoin="round"/>
</svg>
