<svg width="32" height="32" viewBox="0 0 32 32" fill="none" xmlns="http://www.w3.org/2000/svg">
<path d="M0 16C0 7.16344 7.16344 0 16 0C24.8366 0 32 7.16344 32 16C32 24.8366 24.8366 32 16 32C7.16344 32 0 24.8366 0 16Z" fill="#5FA9F0" fill-opacity="0.1"/>
<g clip-path="url(#clip0_246_5005)">
<path d="M14.667 17.7732V18.8572C14.6645 19.0856 14.6033 19.3095 14.4894 19.5075C14.3754 19.7055 14.2126 19.8709 14.0163 19.9879C13.5998 20.2964 13.2609 20.6979 13.0266 21.1603C12.7924 21.6228 12.6693 22.1335 12.667 22.6519" stroke="#5FA9F0" stroke-width="1.33333" stroke-linecap="round" stroke-linejoin="round"/>
<path d="M17.333 17.7732V18.8572C17.3355 19.0856 17.3967 19.3095 17.5106 19.5075C17.6246 19.7055 17.7874 19.8709 17.9837 19.9879C18.4002 20.2964 18.7391 20.6979 18.9734 21.1603C19.2076 21.6228 19.3307 22.1335 19.333 22.6519" stroke="#5FA9F0" stroke-width="1.33333" stroke-linecap="round" stroke-linejoin="round"/>
<path d="M20 14.0001H21C21.442 14.0001 21.866 13.8245 22.1785 13.5119C22.4911 13.1994 22.6667 12.7754 22.6667 12.3334C22.6667 11.8914 22.4911 11.4675 22.1785 11.1549C21.866 10.8423 21.442 10.6667 21 10.6667H20" stroke="#5FA9F0" stroke-width="1.33333" stroke-linecap="round" stroke-linejoin="round"/>
<path d="M10.667 22.6667H21.3337" stroke="#5FA9F0" stroke-width="1.33333" stroke-linecap="round" stroke-linejoin="round"/>
<path d="M12 13.9999C12 15.0608 12.4214 16.0782 13.1716 16.8283C13.9217 17.5785 14.9391 17.9999 16 17.9999C17.0609 17.9999 18.0783 17.5785 18.8284 16.8283C19.5786 16.0782 20 15.0608 20 13.9999V9.99992C20 9.82311 19.9298 9.65354 19.8047 9.52851C19.6797 9.40349 19.5101 9.33325 19.3333 9.33325H12.6667C12.4899 9.33325 12.3203 9.40349 12.1953 9.52851C12.0702 9.65354 12 9.82311 12 9.99992V13.9999Z" stroke="#5FA9F0" stroke-width="1.33333" stroke-linecap="round" stroke-linejoin="round"/>
<path d="M11.9997 14.0001H10.9997C10.5576 14.0001 10.1337 13.8245 9.82116 13.5119C9.5086 13.1994 9.33301 12.7754 9.33301 12.3334C9.33301 11.8914 9.5086 11.4675 9.82116 11.1549C10.1337 10.8423 10.5576 10.6667 10.9997 10.6667H11.9997" stroke="#5FA9F0" stroke-width="1.33333" stroke-linecap="round" stroke-linejoin="round"/>
</g>
<defs>
<clipPath id="clip0_246_5005">
<rect width="16" height="16" fill="white" transform="translate(8 8)"/>
</clipPath>
</defs>
</svg>
