<svg width="32" height="32" viewBox="0 0 32 32" fill="none" xmlns="http://www.w3.org/2000/svg">
<path d="M0 16C0 7.16344 7.16344 0 16 0C24.8366 0 32 7.16344 32 16C32 24.8366 24.8366 32 16 32C7.16344 32 0 24.8366 0 16Z" fill="#5FA9F0" fill-opacity="0.1"/>
<path d="M18.3178 16.5933L19.3278 22.2773C19.3391 22.3442 19.3298 22.413 19.3009 22.4744C19.2721 22.5359 19.2252 22.5871 19.1665 22.6211C19.1077 22.6552 19.04 22.6705 18.9724 22.6651C18.9047 22.6596 18.8403 22.6336 18.7878 22.5906L16.4012 20.7993C16.286 20.7132 16.146 20.6667 16.0022 20.6667C15.8583 20.6667 15.7184 20.7132 15.6032 20.7993L13.2125 22.5899C13.16 22.6329 13.0957 22.6588 13.0282 22.6643C12.9606 22.6698 12.8929 22.6545 12.8343 22.6205C12.7756 22.5865 12.7287 22.5355 12.6998 22.4742C12.6709 22.4128 12.6614 22.3441 12.6725 22.2773L13.6818 16.5933" stroke="#5FA9F0" stroke-width="1.33333" stroke-linecap="round" stroke-linejoin="round"/>
<path d="M16 17.3333C18.2091 17.3333 20 15.5424 20 13.3333C20 11.1241 18.2091 9.33325 16 9.33325C13.7909 9.33325 12 11.1241 12 13.3333C12 15.5424 13.7909 17.3333 16 17.3333Z" stroke="#5FA9F0" stroke-width="1.33333" stroke-linecap="round" stroke-linejoin="round"/>
</svg>
