<svg width="32" height="32" viewBox="0 0 32 32" fill="none" xmlns="http://www.w3.org/2000/svg">
<path d="M0 16C0 7.16344 7.16344 0 16 0C24.8366 0 32 7.16344 32 16C32 24.8366 24.8366 32 16 32C7.16344 32 0 24.8366 0 16Z" fill="#5FA9F0" fill-opacity="0.1"/>
<path d="M15.6832 9.52985C15.7124 9.47082 15.7576 9.42114 15.8135 9.3864C15.8695 9.35166 15.934 9.33325 15.9999 9.33325C16.0658 9.33325 16.1303 9.35166 16.1863 9.3864C16.2422 9.42114 16.2873 9.47082 16.3166 9.52985L17.8566 12.6492C17.958 12.8545 18.1078 13.0321 18.293 13.1668C18.4782 13.3015 18.6933 13.3893 18.9199 13.4225L22.3639 13.9265C22.4292 13.936 22.4905 13.9635 22.5409 14.006C22.5913 14.0485 22.6288 14.1042 22.6492 14.1669C22.6696 14.2296 22.6721 14.2968 22.6563 14.3608C22.6405 14.4248 22.6071 14.4831 22.5599 14.5292L20.0692 16.9545C19.905 17.1146 19.7821 17.3122 19.7111 17.5303C19.6402 17.7484 19.6233 17.9804 19.6619 18.2065L20.2499 21.6332C20.2614 21.6984 20.2544 21.7656 20.2296 21.827C20.2048 21.8884 20.1632 21.9416 20.1096 21.9805C20.056 22.0194 19.9925 22.0425 19.9265 22.0471C19.8604 22.0517 19.7944 22.0376 19.7359 22.0065L16.6572 20.3878C16.4544 20.2813 16.2287 20.2257 15.9996 20.2257C15.7704 20.2257 15.5448 20.2813 15.3419 20.3878L12.2639 22.0065C12.2055 22.0375 12.1395 22.0514 12.0735 22.0467C12.0076 22.042 11.9442 22.0189 11.8908 21.98C11.8373 21.9411 11.7958 21.888 11.771 21.8267C11.7462 21.7654 11.7391 21.6983 11.7506 21.6332L12.3379 18.2072C12.3767 17.981 12.3599 17.7488 12.2889 17.5305C12.218 17.3123 12.095 17.1146 11.9306 16.9545L9.4399 14.5298C9.39229 14.4839 9.35856 14.4254 9.34254 14.3612C9.32652 14.297 9.32886 14.2296 9.34928 14.1666C9.36971 14.1037 9.40741 14.0477 9.45808 14.0052C9.50876 13.9626 9.57037 13.9351 9.6359 13.9258L13.0792 13.4225C13.3061 13.3895 13.5215 13.3019 13.707 13.1672C13.8924 13.0325 14.0424 12.8547 14.1439 12.6492L15.6832 9.52985Z" stroke="#5FA9F0" stroke-width="1.33333" stroke-linecap="round" stroke-linejoin="round"/>
</svg>
