<svg width="32" height="32" viewBox="0 0 32 32" fill="none" xmlns="http://www.w3.org/2000/svg">
<path d="M13.333 19.5467V21.7147C13.328 22.1715 13.2057 22.6194 12.9778 23.0153C12.7499 23.4113 12.4241 23.7421 12.0317 23.976C11.1985 24.5931 10.5208 25.396 10.0523 26.3209C9.58385 27.2458 9.33755 28.2672 9.33301 29.304" stroke="#5FA9F0" stroke-width="2.66667" stroke-linecap="round" stroke-linejoin="round"/>
<path d="M18.667 19.5467V21.7147C18.672 22.1715 18.7943 22.6194 19.0222 23.0153C19.2501 23.4113 19.5759 23.7421 19.9683 23.976C20.8015 24.5931 21.4792 25.396 21.9477 26.3209C22.4162 27.2458 22.6624 28.2672 22.667 29.304" stroke="#5FA9F0" stroke-width="2.66667" stroke-linecap="round" stroke-linejoin="round"/>
<path d="M24 12H26C26.8841 12 27.7319 11.6488 28.357 11.0237C28.9821 10.3986 29.3333 9.55073 29.3333 8.66668C29.3333 7.78262 28.9821 6.93478 28.357 6.30965C27.7319 5.68453 26.8841 5.33334 26 5.33334H24" stroke="#5FA9F0" stroke-width="2.66667" stroke-linecap="round" stroke-linejoin="round"/>
<path d="M5.33301 29.3333H26.6663" stroke="#5FA9F0" stroke-width="2.66667" stroke-linecap="round" stroke-linejoin="round"/>
<path d="M8 12C8 14.1217 8.84286 16.1566 10.3431 17.6568C11.8434 19.1571 13.8783 20 16 20C18.1217 20 20.1566 19.1571 21.6569 17.6568C23.1571 16.1566 24 14.1217 24 12V3.99999C24 3.64637 23.8595 3.30723 23.6095 3.05718C23.3594 2.80713 23.0203 2.66666 22.6667 2.66666H9.33333C8.97971 2.66666 8.64057 2.80713 8.39052 3.05718C8.14048 3.30723 8 3.64637 8 3.99999V12Z" stroke="#5FA9F0" stroke-width="2.66667" stroke-linecap="round" stroke-linejoin="round"/>
<path d="M8.00033 12H6.00033C5.11627 12 4.26842 11.6488 3.6433 11.0237C3.01818 10.3986 2.66699 9.55073 2.66699 8.66668C2.66699 7.78262 3.01818 6.93478 3.6433 6.30965C4.26842 5.68453 5.11627 5.33334 6.00033 5.33334H8.00033" stroke="#5FA9F0" stroke-width="2.66667" stroke-linecap="round" stroke-linejoin="round"/>
</svg>
