<svg width="40" height="40" viewBox="0 0 40 40" fill="none" xmlns="http://www.w3.org/2000/svg">
<path d="M0 12C0 5.37258 5.37258 0 12 0H28C34.6274 0 40 5.37258 40 12V28C40 34.6274 34.6274 40 28 40H12C5.37258 40 0 34.6274 0 28V12Z" fill="#5FA9F0" fill-opacity="0.1"/>
<g clip-path="url(#clip0_1_1775)">
<path d="M20 15V20L23.3333 21.6667" stroke="#5FA9F0" stroke-width="1.66667" stroke-linecap="round" stroke-linejoin="round"/>
<path d="M19.9998 28.3334C24.6022 28.3334 28.3332 24.6024 28.3332 20C28.3332 15.3976 24.6022 11.6667 19.9998 11.6667C15.3975 11.6667 11.6665 15.3976 11.6665 20C11.6665 24.6024 15.3975 28.3334 19.9998 28.3334Z" stroke="#5FA9F0" stroke-width="1.66667" stroke-linecap="round" stroke-linejoin="round"/>
</g>
<defs>
<clipPath id="clip0_1_1775">
<rect width="20" height="20" fill="white" transform="translate(10 10)"/>
</clipPath>
</defs>
</svg>
