<svg width="40" height="40" viewBox="0 0 40 40" fill="none" xmlns="http://www.w3.org/2000/svg">
<path d="M0 12C0 5.37258 5.37258 0 12 0H28C34.6274 0 40 5.37258 40 12V28C40 34.6274 34.6274 40 28 40H12C5.37258 40 0 34.6274 0 28V12Z" fill="#5FA9F0" fill-opacity="0.1"/>
<path d="M28.3332 15.8333L20.8407 20.6058C20.5864 20.7535 20.2976 20.8313 20.0036 20.8313C19.7096 20.8313 19.4208 20.7535 19.1665 20.6058L11.6665 15.8333" stroke="#5FA9F0" stroke-width="1.66667" stroke-linecap="round" stroke-linejoin="round"/>
<path d="M26.6665 13.3333H13.3332C12.4127 13.3333 11.6665 14.0795 11.6665 15V25C11.6665 25.9205 12.4127 26.6667 13.3332 26.6667H26.6665C27.587 26.6667 28.3332 25.9205 28.3332 25V15C28.3332 14.0795 27.587 13.3333 26.6665 13.3333Z" stroke="#5FA9F0" stroke-width="1.66667" stroke-linecap="round" stroke-linejoin="round"/>
</svg>
