<svg width="40" height="40" viewBox="0 0 40 40" fill="none" xmlns="http://www.w3.org/2000/svg">
<path d="M0 12C0 5.37258 5.37258 0 12 0H28C34.6274 0 40 5.37258 40 12V28C40 34.6274 34.6274 40 28 40H12C5.37258 40 0 34.6274 0 28V12Z" fill="#5FA9F0" fill-opacity="0.1"/>
<path d="M26.6668 18.3334C26.6668 22.4942 22.051 26.8275 20.501 28.1659C20.3566 28.2744 20.1808 28.3331 20.0002 28.3331C19.8195 28.3331 19.6437 28.2744 19.4993 28.1659C17.9493 26.8275 13.3335 22.4942 13.3335 18.3334C13.3335 16.5652 14.0359 14.8696 15.2861 13.6193C16.5364 12.3691 18.2321 11.6667 20.0002 11.6667C21.7683 11.6667 23.464 12.3691 24.7142 13.6193C25.9645 14.8696 26.6668 16.5652 26.6668 18.3334Z" stroke="#5FA9F0" stroke-width="1.66667" stroke-linecap="round" stroke-linejoin="round"/>
<path d="M20 20.8333C21.3807 20.8333 22.5 19.714 22.5 18.3333C22.5 16.9526 21.3807 15.8333 20 15.8333C18.6193 15.8333 17.5 16.9526 17.5 18.3333C17.5 19.714 18.6193 20.8333 20 20.8333Z" stroke="#5FA9F0" stroke-width="1.66667" stroke-linecap="round" stroke-linejoin="round"/>
</svg>
