<svg width="40" height="40" viewBox="0 0 40 40" fill="none" xmlns="http://www.w3.org/2000/svg">
<path d="M0 12C0 5.37258 5.37258 0 12 0H28C34.6274 0 40 5.37258 40 12V28C40 34.6274 34.6274 40 28 40H12C5.37258 40 0 34.6274 0 28V12Z" fill="#5FA9F0" fill-opacity="0.1"/>
<g clip-path="url(#clip0_1_1751)">
<path d="M21.5265 23.8067C21.6986 23.8857 21.8925 23.9038 22.0762 23.8579C22.26 23.812 22.4226 23.7048 22.5373 23.5542L22.8332 23.1667C22.9884 22.9597 23.1897 22.7917 23.4211 22.6759C23.6526 22.5602 23.9078 22.5 24.1665 22.5H26.6665C27.1085 22.5 27.5325 22.6756 27.845 22.9881C28.1576 23.3007 28.3332 23.7246 28.3332 24.1667V26.6667C28.3332 27.1087 28.1576 27.5326 27.845 27.8452C27.5325 28.1577 27.1085 28.3333 26.6665 28.3333C22.6883 28.3333 18.8729 26.753 16.0599 23.9399C13.2469 21.1269 11.6665 17.3116 11.6665 13.3333C11.6665 12.8913 11.8421 12.4674 12.1547 12.1548C12.4672 11.8423 12.8911 11.6667 13.3332 11.6667H15.8332C16.2752 11.6667 16.6991 11.8423 17.0117 12.1548C17.3242 12.4674 17.4998 12.8913 17.4998 13.3333V15.8333C17.4998 16.0921 17.4396 16.3473 17.3239 16.5787C17.2082 16.8101 17.0402 17.0114 16.8332 17.1667L16.4432 17.4592C16.2902 17.576 16.1824 17.7421 16.138 17.9294C16.0936 18.1168 16.1155 18.3136 16.1998 18.4867C17.3387 20.7999 19.2119 22.6707 21.5265 23.8067Z" stroke="#5FA9F0" stroke-width="1.66667" stroke-linecap="round" stroke-linejoin="round"/>
</g>
<defs>
<clipPath id="clip0_1_1751">
<rect width="20" height="20" fill="white" transform="translate(10 10)"/>
</clipPath>
</defs>
</svg>
