<svg width="32" height="32" viewBox="0 0 32 32" fill="none" xmlns="http://www.w3.org/2000/svg">
<path d="M0 16C0 7.16344 7.16344 0 16 0C24.8366 0 32 7.16344 32 16C32 24.8366 24.8366 32 16 32C7.16344 32 0 24.8366 0 16Z" fill="#5FA9F0" fill-opacity="0.1"/>
<g clip-path="url(#clip0_246_5028)">
<path d="M15.9997 22.6666C19.6816 22.6666 22.6663 19.6818 22.6663 15.9999C22.6663 12.318 19.6816 9.33325 15.9997 9.33325C12.3178 9.33325 9.33301 12.318 9.33301 15.9999C9.33301 19.6818 12.3178 22.6666 15.9997 22.6666Z" stroke="#5FA9F0" stroke-width="1.33333" stroke-linecap="round" stroke-linejoin="round"/>
<path d="M16 20C18.2091 20 20 18.2091 20 16C20 13.7909 18.2091 12 16 12C13.7909 12 12 13.7909 12 16C12 18.2091 13.7909 20 16 20Z" stroke="#5FA9F0" stroke-width="1.33333" stroke-linecap="round" stroke-linejoin="round"/>
<path d="M16.0003 17.3334C16.7367 17.3334 17.3337 16.7365 17.3337 16.0001C17.3337 15.2637 16.7367 14.6667 16.0003 14.6667C15.2639 14.6667 14.667 15.2637 14.667 16.0001C14.667 16.7365 15.2639 17.3334 16.0003 17.3334Z" stroke="#5FA9F0" stroke-width="1.33333" stroke-linecap="round" stroke-linejoin="round"/>
</g>
<defs>
<clipPath id="clip0_246_5028">
<rect width="16" height="16" fill="white" transform="translate(8 8)"/>
</clipPath>
</defs>
</svg>
