<svg width="64" height="64" viewBox="0 0 64 64" fill="none" xmlns="http://www.w3.org/2000/svg">
<path d="M0 32C0 14.3269 14.3269 0 32 0C49.6731 0 64 14.3269 64 32C64 49.6731 49.6731 64 32 64C14.3269 64 0 49.6731 0 32Z" fill="#5FA9F0" fill-opacity="0.1"/>
<path d="M35.9997 18.6667H23.9997C23.2924 18.6667 22.6142 18.9477 22.1141 19.4478C21.614 19.9479 21.333 20.6262 21.333 21.3334V42.6667C21.333 43.374 21.614 44.0523 22.1141 44.5524C22.6142 45.0525 23.2924 45.3334 23.9997 45.3334H39.9997C40.7069 45.3334 41.3852 45.0525 41.8853 44.5524C42.3854 44.0523 42.6663 43.374 42.6663 42.6667V25.3334L35.9997 18.6667Z" stroke="#5FA9F0" stroke-width="2.66667" stroke-linecap="round" stroke-linejoin="round"/>
<path d="M34.667 18.6667V24.0001C34.667 24.7073 34.9479 25.3856 35.448 25.8857C35.9481 26.3858 36.6264 26.6667 37.3337 26.6667H42.667" stroke="#5FA9F0" stroke-width="2.66667" stroke-linecap="round" stroke-linejoin="round"/>
<path d="M28 35.9999L30.6667 38.6666L36 33.3333" stroke="#5FA9F0" stroke-width="2.66667" stroke-linecap="round" stroke-linejoin="round"/>
</svg>
