<svg width="16" height="16" viewBox="0 0 16 16" fill="none" xmlns="http://www.w3.org/2000/svg">
<path d="M8 6.66675H8.00667" stroke="#6B7280" stroke-width="1.33333" stroke-linecap="round" stroke-linejoin="round"/>
<path d="M8 9.33325H8.00667" stroke="#6B7280" stroke-width="1.33333" stroke-linecap="round" stroke-linejoin="round"/>
<path d="M8 4H8.00667" stroke="#6B7280" stroke-width="1.33333" stroke-linecap="round" stroke-linejoin="round"/>
<path d="M10.667 6.66675H10.6737" stroke="#6B7280" stroke-width="1.33333" stroke-linecap="round" stroke-linejoin="round"/>
<path d="M10.667 9.33325H10.6737" stroke="#6B7280" stroke-width="1.33333" stroke-linecap="round" stroke-linejoin="round"/>
<path d="M10.667 4H10.6737" stroke="#6B7280" stroke-width="1.33333" stroke-linecap="round" stroke-linejoin="round"/>
<path d="M5.33301 6.66675H5.33967" stroke="#6B7280" stroke-width="1.33333" stroke-linecap="round" stroke-linejoin="round"/>
<path d="M5.33301 9.33325H5.33967" stroke="#6B7280" stroke-width="1.33333" stroke-linecap="round" stroke-linejoin="round"/>
<path d="M5.33301 4H5.33967" stroke="#6B7280" stroke-width="1.33333" stroke-linecap="round" stroke-linejoin="round"/>
<path d="M6 14.6667V12.6667C6 12.4899 6.07024 12.3203 6.19526 12.1953C6.32029 12.0702 6.48986 12 6.66667 12H9.33333C9.51014 12 9.67971 12.0702 9.80474 12.1953C9.92976 12.3203 10 12.4899 10 12.6667V14.6667" stroke="#6B7280" stroke-width="1.33333" stroke-linecap="round" stroke-linejoin="round"/>
<path d="M12.0003 1.33325H4.00033C3.26395 1.33325 2.66699 1.93021 2.66699 2.66659V13.3333C2.66699 14.0696 3.26395 14.6666 4.00033 14.6666H12.0003C12.7367 14.6666 13.3337 14.0696 13.3337 13.3333V2.66659C13.3337 1.93021 12.7367 1.33325 12.0003 1.33325Z" stroke="#6B7280" stroke-width="1.33333" stroke-linecap="round" stroke-linejoin="round"/>
</svg>
